<?xml version="1.0" encoding="UTF-8" standalone="no"?>
<!DOCTYPE svg PUBLIC "-//W3C//DTD SVG 1.1//EN"
 "http://www.w3.org/Graphics/SVG/1.1/DTD/svg11.dtd">
<!-- Generated by graphviz version 2.47.0 (20210316.0004)
 -->
<!-- Title: dependencies Pages: 1 -->
<svg width="4222pt" height="284pt"
 viewBox="0.00 0.00 4222.00 284.00" xmlns="http://www.w3.org/2000/svg" xmlns:xlink="http://www.w3.org/1999/xlink">
<g id="graph0" class="graph" transform="scale(1 1) rotate(0) translate(4 280)">
<title>dependencies</title>
<polygon fill="white" stroke="transparent" points="-4,4 -4,-280 4218,-280 4218,4 -4,4"/>
<text text-anchor="start" x="2086.01" y="-42.4" font-family="Times-12" font-weight="bold" font-size="14.00">Legend</text>
<polygon fill="#ffffb3" stroke="transparent" points="1873,-10 1873,-30 1893,-30 1893,-10 1873,-10"/>
<text text-anchor="start" x="1896.63" y="-15.4" font-family="Times-12" font-size="14.00"> &#160;Declarations</text>
<polygon fill="#8dd3c7" stroke="transparent" points="1986,-10 1986,-30 2006,-30 2006,-10 1986,-10"/>
<text text-anchor="start" x="2009.73" y="-15.4" font-family="Times-12" font-size="14.00"> &#160;Module</text>
<polygon fill="#80b1d3" stroke="transparent" points="2072,-10 2072,-30 2092,-30 2092,-10 2072,-10"/>
<text text-anchor="start" x="2095.78" y="-15.4" font-family="Times-12" font-size="14.00"> &#160;Bootstrap</text>
<polygon fill="#fdb462" stroke="transparent" points="2169,-10 2169,-30 2189,-30 2189,-10 2169,-10"/>
<text text-anchor="start" x="2192.67" y="-15.4" font-family="Times-12" font-size="14.00"> &#160;Providers</text>
<polygon fill="#fb8072" stroke="transparent" points="2265,-10 2265,-30 2285,-30 2285,-10 2265,-10"/>
<text text-anchor="start" x="2288.73" y="-15.4" font-family="Times-12" font-size="14.00"> &#160;Exports</text>
<g id="clust1" class="cluster">
<title>cluster_AppModule</title>
<polygon fill="none" stroke="black" stroke-dasharray="1,5" points="8,-70 8,-268 4206,-268 4206,-70 8,-70"/>
</g>
<g id="clust2" class="cluster">
<title>cluster_AppModule_declarations</title>
<polygon fill="none" stroke="black" points="168,-78 168,-130 4198,-130 4198,-78 168,-78"/>
</g>
<g id="clust30" class="cluster">
<title>cluster_AppModule_bootstrap</title>
<polygon fill="none" stroke="black" points="2017,-208 2017,-260 2141,-260 2141,-208 2017,-208"/>
</g>
<g id="clust28" class="cluster">
<title>cluster_AppModule_imports</title>
<polygon fill="none" stroke="black" points="16,-78 16,-130 160,-130 160,-78 16,-78"/>
</g>
<!-- AppComponent -->
<g id="node1" class="node">
<title>AppComponent</title>
<polygon fill="#ffffb3" stroke="black" points="4189.94,-122 4084.06,-122 4084.06,-86 4189.94,-86 4189.94,-122"/>
<text text-anchor="middle" x="4137" y="-99.8" font-family="Times,serif" font-size="14.00">AppComponent</text>
</g>
<!-- AppModule -->
<g id="node26" class="node">
<title>AppModule</title>
<polygon fill="#8dd3c7" stroke="black" points="2120.66,-187 2117.66,-191 2096.66,-191 2093.66,-187 2037.34,-187 2037.34,-151 2120.66,-151 2120.66,-187"/>
<text text-anchor="middle" x="2079" y="-164.8" font-family="Times,serif" font-size="14.00">AppModule</text>
</g>
<!-- AppComponent&#45;&gt;AppModule -->
<g id="edge1" class="edge">
<title>AppComponent&#45;&gt;AppModule</title>
<path fill="none" stroke="black" d="M4137,-122.38C4137,-146.28 4137,-185 4137,-185 4137,-185 2131.04,-185 2131.04,-185"/>
<polygon fill="black" stroke="black" points="2131.04,-181.5 2121.04,-185 2131.04,-188.5 2131.04,-181.5"/>
</g>
<!-- BodyBuilderComponent -->
<g id="node2" class="node">
<title>BodyBuilderComponent</title>
<polygon fill="#ffffb3" stroke="black" points="4065.66,-122 3912.34,-122 3912.34,-86 4065.66,-86 4065.66,-122"/>
<text text-anchor="middle" x="3989" y="-99.8" font-family="Times,serif" font-size="14.00">BodyBuilderComponent</text>
</g>
<!-- BodyBuilderComponent&#45;&gt;AppModule -->
<g id="edge2" class="edge">
<title>BodyBuilderComponent&#45;&gt;AppModule</title>
<path fill="none" stroke="black" d="M3989,-122.09C3989,-145.13 3989,-182 3989,-182 3989,-182 2130.67,-182 2130.67,-182"/>
<polygon fill="black" stroke="black" points="2130.67,-178.5 2120.67,-182 2130.67,-185.5 2130.67,-178.5"/>
</g>
<!-- BodyElementComponent -->
<g id="node3" class="node">
<title>BodyElementComponent</title>
<polygon fill="#ffffb3" stroke="black" points="3894.32,-122 3735.68,-122 3735.68,-86 3894.32,-86 3894.32,-122"/>
<text text-anchor="middle" x="3815" y="-99.8" font-family="Times,serif" font-size="14.00">BodyElementComponent</text>
</g>
<!-- BodyElementComponent&#45;&gt;AppModule -->
<g id="edge3" class="edge">
<title>BodyElementComponent&#45;&gt;AppModule</title>
<path fill="none" stroke="black" d="M3815,-122.01C3815,-144.49 3815,-180 3815,-180 3815,-180 2131.05,-180 2131.05,-180"/>
<polygon fill="black" stroke="black" points="2131.05,-176.5 2121.05,-180 2131.05,-183.5 2131.05,-176.5"/>
</g>
<!-- CrearSitioComponent -->
<g id="node4" class="node">
<title>CrearSitioComponent</title>
<polygon fill="#ffffb3" stroke="black" points="3717.37,-122 3578.63,-122 3578.63,-86 3717.37,-86 3717.37,-122"/>
<text text-anchor="middle" x="3648" y="-99.8" font-family="Times,serif" font-size="14.00">CrearSitioComponent</text>
</g>
<!-- CrearSitioComponent&#45;&gt;AppModule -->
<g id="edge4" class="edge">
<title>CrearSitioComponent&#45;&gt;AppModule</title>
<path fill="none" stroke="black" d="M3648,-122.04C3648,-143.66 3648,-177 3648,-177 3648,-177 2130.97,-177 2130.97,-177"/>
<polygon fill="black" stroke="black" points="2130.97,-173.5 2120.97,-177 2130.97,-180.5 2130.97,-173.5"/>
</g>
<!-- FooterLienzoComponent -->
<g id="node5" class="node">
<title>FooterLienzoComponent</title>
<polygon fill="#ffffb3" stroke="black" points="3560.25,-122 3403.75,-122 3403.75,-86 3560.25,-86 3560.25,-122"/>
<text text-anchor="middle" x="3482" y="-99.8" font-family="Times,serif" font-size="14.00">FooterLienzoComponent</text>
</g>
<!-- FooterLienzoComponent&#45;&gt;AppModule -->
<g id="edge5" class="edge">
<title>FooterLienzoComponent&#45;&gt;AppModule</title>
<path fill="none" stroke="black" d="M3482,-122.28C3482,-143.32 3482,-175 3482,-175 3482,-175 2130.99,-175 2130.99,-175"/>
<polygon fill="black" stroke="black" points="2130.99,-171.5 2120.99,-175 2130.99,-178.5 2130.99,-171.5"/>
</g>
<!-- HeaderComponent -->
<g id="node6" class="node">
<title>HeaderComponent</title>
<polygon fill="#ffffb3" stroke="black" points="3385.74,-122 3264.26,-122 3264.26,-86 3385.74,-86 3385.74,-122"/>
<text text-anchor="middle" x="3325" y="-99.8" font-family="Times,serif" font-size="14.00">HeaderComponent</text>
</g>
<!-- HeaderComponent&#45;&gt;AppModule -->
<g id="edge6" class="edge">
<title>HeaderComponent&#45;&gt;AppModule</title>
<path fill="none" stroke="black" d="M3325,-122.22C3325,-142.37 3325,-172 3325,-172 3325,-172 2130.81,-172 2130.81,-172"/>
<polygon fill="black" stroke="black" points="2130.81,-168.5 2120.81,-172 2130.81,-175.5 2130.81,-168.5"/>
</g>
<!-- ImageComponent -->
<g id="node7" class="node">
<title>ImageComponent</title>
<polygon fill="#ffffb3" stroke="black" points="3246.31,-122 3129.69,-122 3129.69,-86 3246.31,-86 3246.31,-122"/>
<text text-anchor="middle" x="3188" y="-99.8" font-family="Times,serif" font-size="14.00">ImageComponent</text>
</g>
<!-- ImageComponent&#45;&gt;AppModule -->
<g id="edge7" class="edge">
<title>ImageComponent&#45;&gt;AppModule</title>
<path fill="none" stroke="black" d="M3188,-122.11C3188,-141.34 3188,-169 3188,-169 3188,-169 2130.78,-169 2130.78,-169"/>
<polygon fill="black" stroke="black" points="2130.78,-165.5 2120.78,-169 2130.78,-172.5 2130.78,-165.5"/>
</g>
<!-- ImagenLienzoComponent -->
<g id="node8" class="node">
<title>ImagenLienzoComponent</title>
<polygon fill="#ffffb3" stroke="black" points="3112.19,-122 2949.81,-122 2949.81,-86 3112.19,-86 3112.19,-122"/>
<text text-anchor="middle" x="3031" y="-99.8" font-family="Times,serif" font-size="14.00">ImagenLienzoComponent</text>
</g>
<!-- ImagenLienzoComponent&#45;&gt;AppModule -->
<g id="edge8" class="edge">
<title>ImagenLienzoComponent&#45;&gt;AppModule</title>
<path fill="none" stroke="black" d="M3031,-122.22C3031,-140.83 3031,-167 3031,-167 3031,-167 2130.83,-167 2130.83,-167"/>
<polygon fill="black" stroke="black" points="2130.83,-163.5 2120.83,-167 2130.83,-170.5 2130.83,-163.5"/>
</g>
<!-- LienzoPaginaComponent -->
<g id="node9" class="node">
<title>LienzoPaginaComponent</title>
<polygon fill="#ffffb3" stroke="black" points="2932.31,-122 2773.69,-122 2773.69,-86 2932.31,-86 2932.31,-122"/>
<text text-anchor="middle" x="2853" y="-99.8" font-family="Times,serif" font-size="14.00">LienzoPaginaComponent</text>
</g>
<!-- LienzoPaginaComponent&#45;&gt;AppModule -->
<g id="edge9" class="edge">
<title>LienzoPaginaComponent&#45;&gt;AppModule</title>
<path fill="none" stroke="black" d="M2853,-122C2853,-139.68 2853,-164 2853,-164 2853,-164 2130.89,-164 2130.89,-164"/>
<polygon fill="black" stroke="black" points="2130.89,-160.5 2120.89,-164 2130.89,-167.5 2130.89,-160.5"/>
</g>
<!-- LoginComponent -->
<g id="node10" class="node">
<title>LoginComponent</title>
<polygon fill="#ffffb3" stroke="black" points="2755.28,-122 2640.72,-122 2640.72,-86 2755.28,-86 2755.28,-122"/>
<text text-anchor="middle" x="2698" y="-99.8" font-family="Times,serif" font-size="14.00">LoginComponent</text>
</g>
<!-- LoginComponent&#45;&gt;AppModule -->
<g id="edge10" class="edge">
<title>LoginComponent&#45;&gt;AppModule</title>
<path fill="none" stroke="black" d="M2698,-122.03C2698,-139.06 2698,-162 2698,-162 2698,-162 2131.06,-162 2131.06,-162"/>
<polygon fill="black" stroke="black" points="2131.06,-158.5 2121.06,-162 2131.06,-165.5 2131.06,-158.5"/>
</g>
<!-- MenuOptionComponent -->
<g id="node11" class="node">
<title>MenuOptionComponent</title>
<polygon fill="#ffffb3" stroke="black" points="2622.38,-122 2469.62,-122 2469.62,-86 2622.38,-86 2622.38,-122"/>
<text text-anchor="middle" x="2546" y="-99.8" font-family="Times,serif" font-size="14.00">MenuOptionComponent</text>
</g>
<!-- MenuOptionComponent&#45;&gt;AppModule -->
<g id="edge11" class="edge">
<title>MenuOptionComponent&#45;&gt;AppModule</title>
<path fill="none" stroke="black" d="M2546,-122.01C2546,-138.05 2546,-159 2546,-159 2546,-159 2130.85,-159 2130.85,-159"/>
<polygon fill="black" stroke="black" points="2130.85,-155.5 2120.85,-159 2130.85,-162.5 2130.85,-155.5"/>
</g>
<!-- MiCuentaComponent -->
<g id="node12" class="node">
<title>MiCuentaComponent</title>
<polygon fill="#ffffb3" stroke="black" points="2451.82,-122 2314.18,-122 2314.18,-86 2451.82,-86 2451.82,-122"/>
<text text-anchor="middle" x="2383" y="-99.8" font-family="Times,serif" font-size="14.00">MiCuentaComponent</text>
</g>
<!-- MiCuentaComponent&#45;&gt;AppModule -->
<g id="edge12" class="edge">
<title>MiCuentaComponent&#45;&gt;AppModule</title>
<path fill="none" stroke="black" d="M2383,-122.24C2383,-137.57 2383,-157 2383,-157 2383,-157 2130.95,-157 2130.95,-157"/>
<polygon fill="black" stroke="black" points="2130.95,-153.5 2120.95,-157 2130.95,-160.5 2130.95,-153.5"/>
</g>
<!-- MisSitiosComponent -->
<g id="node13" class="node">
<title>MisSitiosComponent</title>
<polygon fill="#ffffb3" stroke="black" points="2296.51,-122 2161.49,-122 2161.49,-86 2296.51,-86 2296.51,-122"/>
<text text-anchor="middle" x="2229" y="-99.8" font-family="Times,serif" font-size="14.00">MisSitiosComponent</text>
</g>
<!-- MisSitiosComponent&#45;&gt;AppModule -->
<g id="edge13" class="edge">
<title>MisSitiosComponent&#45;&gt;AppModule</title>
<path fill="none" stroke="black" d="M2229,-122.05C2229,-136.37 2229,-154 2229,-154 2229,-154 2130.78,-154 2130.78,-154"/>
<polygon fill="black" stroke="black" points="2130.78,-150.5 2120.78,-154 2130.78,-157.5 2130.78,-150.5"/>
</g>
<!-- RankingComponent -->
<g id="node14" class="node">
<title>RankingComponent</title>
<polygon fill="#ffffb3" stroke="black" points="2143.27,-122 2014.73,-122 2014.73,-86 2143.27,-86 2143.27,-122"/>
<text text-anchor="middle" x="2079" y="-99.8" font-family="Times,serif" font-size="14.00">RankingComponent</text>
</g>
<!-- RankingComponent&#45;&gt;AppModule -->
<g id="edge14" class="edge">
<title>RankingComponent&#45;&gt;AppModule</title>
<path fill="none" stroke="black" d="M2079,-122.11C2079,-122.11 2079,-140.99 2079,-140.99"/>
<polygon fill="black" stroke="black" points="2075.5,-140.99 2079,-150.99 2082.5,-140.99 2075.5,-140.99"/>
</g>
<!-- RegisterComponent -->
<g id="node15" class="node">
<title>RegisterComponent</title>
<polygon fill="#ffffb3" stroke="black" points="1996.98,-122 1869.02,-122 1869.02,-86 1996.98,-86 1996.98,-122"/>
<text text-anchor="middle" x="1933" y="-99.8" font-family="Times,serif" font-size="14.00">RegisterComponent</text>
</g>
<!-- RegisterComponent&#45;&gt;AppModule -->
<g id="edge15" class="edge">
<title>RegisterComponent&#45;&gt;AppModule</title>
<path fill="none" stroke="black" d="M1933,-122.05C1933,-136.37 1933,-154 1933,-154 1933,-154 2027.16,-154 2027.16,-154"/>
<polygon fill="black" stroke="black" points="2027.16,-157.5 2037.16,-154 2027.16,-150.5 2027.16,-157.5"/>
</g>
<!-- SidebarComponent -->
<g id="node16" class="node">
<title>SidebarComponent</title>
<polygon fill="#ffffb3" stroke="black" points="1851.1,-122 1726.9,-122 1726.9,-86 1851.1,-86 1851.1,-122"/>
<text text-anchor="middle" x="1789" y="-99.8" font-family="Times,serif" font-size="14.00">SidebarComponent</text>
</g>
<!-- SidebarComponent&#45;&gt;AppModule -->
<g id="edge16" class="edge">
<title>SidebarComponent&#45;&gt;AppModule</title>
<path fill="none" stroke="black" d="M1789,-122.24C1789,-137.57 1789,-157 1789,-157 1789,-157 2027.14,-157 2027.14,-157"/>
<polygon fill="black" stroke="black" points="2027.14,-160.5 2037.14,-157 2027.14,-153.5 2027.14,-160.5"/>
</g>
<!-- SitiosComponent -->
<g id="node17" class="node">
<title>SitiosComponent</title>
<polygon fill="#ffffb3" stroke="black" points="1708.73,-122 1595.27,-122 1595.27,-86 1708.73,-86 1708.73,-122"/>
<text text-anchor="middle" x="1652" y="-99.8" font-family="Times,serif" font-size="14.00">SitiosComponent</text>
</g>
<!-- SitiosComponent&#45;&gt;AppModule -->
<g id="edge17" class="edge">
<title>SitiosComponent&#45;&gt;AppModule</title>
<path fill="none" stroke="black" d="M1652,-122.01C1652,-138.05 1652,-159 1652,-159 1652,-159 2027.28,-159 2027.28,-159"/>
<polygon fill="black" stroke="black" points="2027.28,-162.5 2037.28,-159 2027.28,-155.5 2027.28,-162.5"/>
</g>
<!-- SuperAdminSitiosComponent -->
<g id="node18" class="node">
<title>SuperAdminSitiosComponent</title>
<polygon fill="#ffffb3" stroke="black" points="1577.28,-122 1392.72,-122 1392.72,-86 1577.28,-86 1577.28,-122"/>
<text text-anchor="middle" x="1485" y="-99.8" font-family="Times,serif" font-size="14.00">SuperAdminSitiosComponent</text>
</g>
<!-- SuperAdminSitiosComponent&#45;&gt;AppModule -->
<g id="edge18" class="edge">
<title>SuperAdminSitiosComponent&#45;&gt;AppModule</title>
<path fill="none" stroke="black" d="M1515.8,-122.03C1515.8,-139.06 1515.8,-162 1515.8,-162 1515.8,-162 2027.13,-162 2027.13,-162"/>
<polygon fill="black" stroke="black" points="2027.13,-165.5 2037.13,-162 2027.13,-158.5 2027.13,-165.5"/>
</g>
<!-- SuperAdminSitiosComponent&#45;&gt;AppModule -->
<g id="edge19" class="edge">
<title>SuperAdminSitiosComponent&#45;&gt;AppModule</title>
<path fill="none" stroke="black" d="M1454.2,-122C1454.2,-139.68 1454.2,-164 1454.2,-164 1454.2,-164 2027.04,-164 2027.04,-164"/>
<polygon fill="black" stroke="black" points="2027.04,-167.5 2037.04,-164 2027.04,-160.5 2027.04,-167.5"/>
</g>
<!-- SuperadministradorCuentaUsuarioComponent -->
<g id="node19" class="node">
<title>SuperadministradorCuentaUsuarioComponent</title>
<polygon fill="#ffffb3" stroke="black" points="1374.72,-122 1099.28,-122 1099.28,-86 1374.72,-86 1374.72,-122"/>
<text text-anchor="middle" x="1237" y="-99.8" font-family="Times,serif" font-size="14.00">SuperadministradorCuentaUsuarioComponent</text>
</g>
<!-- SuperadministradorCuentaUsuarioComponent&#45;&gt;AppModule -->
<g id="edge20" class="edge">
<title>SuperadministradorCuentaUsuarioComponent&#45;&gt;AppModule</title>
<path fill="none" stroke="black" d="M1237,-122.22C1237,-140.83 1237,-167 1237,-167 1237,-167 2027.25,-167 2027.25,-167"/>
<polygon fill="black" stroke="black" points="2027.25,-170.5 2037.25,-167 2027.25,-163.5 2027.25,-170.5"/>
</g>
<!-- TextComponent -->
<g id="node20" class="node">
<title>TextComponent</title>
<polygon fill="#ffffb3" stroke="black" points="1081.49,-122 974.51,-122 974.51,-86 1081.49,-86 1081.49,-122"/>
<text text-anchor="middle" x="1028" y="-99.8" font-family="Times,serif" font-size="14.00">TextComponent</text>
</g>
<!-- TextComponent&#45;&gt;AppModule -->
<g id="edge21" class="edge">
<title>TextComponent&#45;&gt;AppModule</title>
<path fill="none" stroke="black" d="M1028,-122.11C1028,-141.34 1028,-169 1028,-169 1028,-169 2027.15,-169 2027.15,-169"/>
<polygon fill="black" stroke="black" points="2027.15,-172.5 2037.15,-169 2027.15,-165.5 2027.15,-172.5"/>
</g>
<!-- TextoLienzoComponent -->
<g id="node21" class="node">
<title>TextoLienzoComponent</title>
<polygon fill="#ffffb3" stroke="black" points="956.36,-122 803.64,-122 803.64,-86 956.36,-86 956.36,-122"/>
<text text-anchor="middle" x="880" y="-99.8" font-family="Times,serif" font-size="14.00">TextoLienzoComponent</text>
</g>
<!-- TextoLienzoComponent&#45;&gt;AppModule -->
<g id="edge22" class="edge">
<title>TextoLienzoComponent&#45;&gt;AppModule</title>
<path fill="none" stroke="black" d="M880,-122.22C880,-142.37 880,-172 880,-172 880,-172 2027.03,-172 2027.03,-172"/>
<polygon fill="black" stroke="black" points="2027.03,-175.5 2037.03,-172 2027.03,-168.5 2027.03,-175.5"/>
</g>
<!-- TimelineComponent -->
<g id="node22" class="node">
<title>TimelineComponent</title>
<polygon fill="#ffffb3" stroke="black" points="785.88,-122 654.12,-122 654.12,-86 785.88,-86 785.88,-122"/>
<text text-anchor="middle" x="720" y="-99.8" font-family="Times,serif" font-size="14.00">TimelineComponent</text>
</g>
<!-- TimelineComponent&#45;&gt;AppModule -->
<g id="edge23" class="edge">
<title>TimelineComponent&#45;&gt;AppModule</title>
<path fill="none" stroke="black" d="M720,-122.28C720,-143.32 720,-175 720,-175 720,-175 2027.21,-175 2027.21,-175"/>
<polygon fill="black" stroke="black" points="2027.21,-178.5 2037.21,-175 2027.21,-171.5 2027.21,-178.5"/>
</g>
<!-- TituloLienzoComponent -->
<g id="node23" class="node">
<title>TituloLienzoComponent</title>
<polygon fill="#ffffb3" stroke="black" points="636.43,-122 481.57,-122 481.57,-86 636.43,-86 636.43,-122"/>
<text text-anchor="middle" x="559" y="-99.8" font-family="Times,serif" font-size="14.00">TituloLienzoComponent</text>
</g>
<!-- TituloLienzoComponent&#45;&gt;AppModule -->
<g id="edge24" class="edge">
<title>TituloLienzoComponent&#45;&gt;AppModule</title>
<path fill="none" stroke="black" d="M559,-122.04C559,-143.66 559,-177 559,-177 559,-177 2027.16,-177 2027.16,-177"/>
<polygon fill="black" stroke="black" points="2027.16,-180.5 2037.16,-177 2027.16,-173.5 2027.16,-180.5"/>
</g>
<!-- VideoComponent -->
<g id="node24" class="node">
<title>VideoComponent</title>
<polygon fill="#ffffb3" stroke="black" points="463.55,-122 348.45,-122 348.45,-86 463.55,-86 463.55,-122"/>
<text text-anchor="middle" x="406" y="-99.8" font-family="Times,serif" font-size="14.00">VideoComponent</text>
</g>
<!-- VideoComponent&#45;&gt;AppModule -->
<g id="edge25" class="edge">
<title>VideoComponent&#45;&gt;AppModule</title>
<path fill="none" stroke="black" d="M406,-122.01C406,-144.49 406,-180 406,-180 406,-180 2027.23,-180 2027.23,-180"/>
<polygon fill="black" stroke="black" points="2027.23,-183.5 2037.23,-180 2027.23,-176.5 2027.23,-183.5"/>
</g>
<!-- VideoLienzoComponent -->
<g id="node25" class="node">
<title>VideoLienzoComponent</title>
<polygon fill="#ffffb3" stroke="black" points="330.42,-122 175.58,-122 175.58,-86 330.42,-86 330.42,-122"/>
<text text-anchor="middle" x="253" y="-99.8" font-family="Times,serif" font-size="14.00">VideoLienzoComponent</text>
</g>
<!-- VideoLienzoComponent&#45;&gt;AppModule -->
<g id="edge26" class="edge">
<title>VideoLienzoComponent&#45;&gt;AppModule</title>
<path fill="none" stroke="black" d="M253,-122.09C253,-145.13 253,-182 253,-182 253,-182 2026.99,-182 2026.99,-182"/>
<polygon fill="black" stroke="black" points="2026.99,-185.5 2036.99,-182 2026.99,-178.5 2026.99,-185.5"/>
</g>
<!-- AppComponent  -->
<g id="node28" class="node">
<title>AppComponent </title>
<polygon fill="#80b1d3" stroke="black" points="2133.44,-252 2024.56,-252 2024.56,-216 2133.44,-216 2133.44,-252"/>
<text text-anchor="middle" x="2079" y="-229.8" font-family="Times,serif" font-size="14.00">AppComponent </text>
</g>
<!-- AppModule&#45;&gt;AppComponent  -->
<g id="edge28" class="edge">
<title>AppModule&#45;&gt;AppComponent </title>
<path fill="none" stroke="black" stroke-dasharray="1,5" d="M2079,-187.11C2079,-187.11 2079,-205.99 2079,-205.99"/>
<polygon fill="black" stroke="black" points="2075.5,-205.99 2079,-215.99 2082.5,-205.99 2075.5,-205.99"/>
</g>
<!-- AppRoutingModule -->
<g id="node27" class="node">
<title>AppRoutingModule</title>
<polygon fill="#8dd3c7" stroke="black" points="152.27,-122 149.27,-126 128.27,-126 125.27,-122 23.73,-122 23.73,-86 152.27,-86 152.27,-122"/>
<text text-anchor="middle" x="88" y="-99.8" font-family="Times,serif" font-size="14.00">AppRoutingModule</text>
</g>
<!-- AppRoutingModule&#45;&gt;AppModule -->
<g id="edge27" class="edge">
<title>AppRoutingModule&#45;&gt;AppModule</title>
<path fill="none" stroke="black" d="M88,-122.38C88,-146.28 88,-185 88,-185 88,-185 2026.96,-185 2026.96,-185"/>
<polygon fill="black" stroke="black" points="2026.96,-188.5 2036.96,-185 2026.96,-181.5 2026.96,-188.5"/>
</g>
</g>
</svg>
